<svg version="1.1" id="Layer_1" xmlns="http://www.w3.org/2000/svg" xmlns:xlink="http://www.w3.org/1999/xlink" x="0px" y="0px"
	 width="100%" viewBox="0 0 943 943" enable-background="new 0 0 943 943" xml:space="preserve">
<path fill="#FFFFFF" opacity="1.000000" stroke="none" 
	d="
M522.000000,944.000000 
	C348.000000,944.000000 174.500000,944.000000 1.000000,944.000000 
	C1.000000,629.666687 1.000000,315.333344 1.000000,1.000000 
	C315.333344,1.000000 629.666687,1.000000 944.000000,1.000000 
	C944.000000,315.333344 944.000000,629.666687 944.000000,944.000000 
	C803.500000,944.000000 663.000000,944.000000 522.000000,944.000000 
M655.985291,604.481628 
	C656.996460,605.322632 657.971619,606.211914 659.024231,606.997314 
	C674.357300,618.438477 692.434814,620.666382 710.655090,621.865051 
	C718.035950,622.350586 725.588562,621.873413 732.933167,620.877319 
	C744.244202,619.343323 755.607666,617.628967 766.648560,614.813477 
	C780.527649,611.274231 792.829956,604.113098 802.662476,593.657593 
	C815.036377,580.499756 820.762817,564.219421 821.932739,546.398376 
	C822.907715,531.548645 823.322693,516.662292 824.016235,501.793579 
	C824.077148,500.489624 824.459473,499.201569 824.532837,497.897156 
	C825.124512,487.376648 825.677917,476.854034 826.246155,466.273499 
	C806.130310,467.644348 786.786682,468.962585 767.296753,470.290771 
	C766.854614,477.081848 766.424988,483.645142 766.000610,490.208801 
	C765.649353,495.643707 765.385071,501.085602 764.940918,506.512848 
	C763.665649,522.094788 762.015259,537.653076 761.099426,553.255127 
	C760.411438,564.976746 755.467712,573.701843 745.041931,578.929199 
	C733.409546,584.761169 720.900024,585.539917 708.507141,582.580688 
	C698.031311,580.079346 690.236084,573.397827 691.011169,559.825317 
	C691.274231,555.218750 691.689941,550.621094 691.994995,546.016663 
	C692.682068,535.646545 693.256592,525.268188 694.052063,514.906555 
	C694.453369,509.678619 695.416626,504.493378 695.804626,499.264984 
	C696.397827,491.270233 696.713135,483.254852 697.164124,474.920898 
	C679.324585,476.080841 662.403748,477.181030 645.257751,478.295868 
	C644.494629,485.780151 643.656494,493.101501 643.023193,500.440552 
	C642.243958,509.469421 641.746277,518.523071 640.929016,527.548157 
	C639.520996,543.096863 636.398743,558.578308 639.020203,574.275513 
	C640.992676,586.086670 646.134949,596.206055 655.985291,604.481628 
M615.982727,512.214844 
	C617.321899,494.658691 618.661133,477.102539 620.042358,458.994843 
	C626.443604,458.312805 632.583252,457.543915 638.744080,457.026215 
	C651.543030,455.950775 664.343689,454.857880 677.161255,454.052490 
	C690.857483,453.191925 702.043274,447.586853 710.544739,436.889557 
	C715.947998,430.090820 719.378418,422.462677 718.885864,413.422485 
	C670.435852,417.966064 622.376770,422.473022 574.534668,426.959595 
	C573.956726,430.495056 573.303528,433.378723 573.038574,436.297668 
	C571.640320,451.700684 570.344421,467.112946 569.004150,482.521240 
	C567.678223,497.763977 566.260376,512.999268 565.031067,528.249756 
	C563.601562,545.983276 562.382019,563.733704 560.961975,581.468018 
	C560.583008,586.200684 559.625122,590.887146 559.249756,595.619934 
	C558.642334,603.279114 558.297058,610.959045 557.868530,618.169434 
	C574.680908,618.169434 590.686340,618.169434 606.821106,618.169434 
	C607.257019,610.771057 607.473633,604.174683 608.068420,597.612549 
	C609.269775,584.357910 610.793701,571.132202 611.959900,557.874756 
	C612.826599,548.022034 613.246704,538.130615 614.048218,528.271240 
	C614.459473,523.212891 615.270386,518.187073 615.982727,512.214844 
M514.885986,613.590393 
	C522.779907,609.691162 529.843506,604.880859 535.189575,597.596558 
	C542.268127,587.951782 543.560425,577.113464 543.017029,565.690430 
	C542.599792,556.919006 539.164124,549.882324 531.744751,544.925415 
	C522.266357,538.592651 511.195007,537.916748 500.468109,535.999756 
	C494.516541,534.936157 488.476776,534.196411 482.665192,532.617249 
	C480.801605,532.110840 478.920654,529.622681 478.147308,527.617188 
	C476.909149,524.406189 479.396362,522.637512 482.155548,522.027100 
	C487.558960,520.831787 493.013519,519.359375 498.494812,519.125732 
	C511.534668,518.569763 524.577332,518.875549 537.409851,521.901001 
	C539.555664,522.406921 541.754395,522.203857 542.025208,518.970276 
	C542.573608,512.421936 543.354797,505.893341 543.986572,499.351440 
	C544.341675,495.674561 544.589905,491.987396 544.914490,487.954498 
	C537.505066,487.269318 530.645569,486.157318 523.778564,486.109283 
	C512.847656,486.032806 501.894501,486.388489 490.982666,487.071869 
	C478.798065,487.835022 467.070343,490.709076 456.141846,496.396332 
	C437.919098,505.879639 433.077240,523.416748 435.325317,540.072571 
	C437.634338,557.180054 451.053101,563.286438 465.831818,566.069458 
	C474.789948,567.756348 483.679901,569.913940 492.454163,572.380493 
	C494.296387,572.898376 496.825195,575.814514 496.680359,577.411682 
	C496.469604,579.734924 494.606903,582.748047 492.568970,583.871643 
	C489.400269,585.618835 485.523010,586.715515 481.891754,586.878540 
	C466.690491,587.561096 451.508209,587.285767 436.857483,582.371216 
	C434.053680,581.430603 432.482635,582.545166 432.172424,584.941345 
	C430.971771,594.216492 429.953156,603.519714 429.178528,612.838501 
	C429.099915,613.783936 431.009003,615.651184 432.185211,615.827759 
	C444.652649,617.699036 457.119904,620.239380 469.663635,620.761902 
	C484.777710,621.391541 499.776947,619.060242 514.885986,613.590393 
M303.578552,615.983398 
	C317.013153,618.972290 330.508667,621.460571 344.367554,619.979614 
	C352.674377,619.091980 361.157837,618.805847 369.213318,616.828857 
	C388.045471,612.207214 403.378448,602.287964 411.901215,584.125366 
	C418.417450,570.238892 421.135468,555.728516 419.206055,540.171265 
	C417.743835,528.381348 413.546051,518.091614 405.266998,510.034698 
	C394.595917,499.649963 380.909576,495.551575 366.257629,495.095520 
	C359.173523,494.875061 351.973297,495.094910 344.976776,496.133575 
	C334.823547,497.640930 324.765564,499.896088 314.775879,502.287323 
	C313.216339,502.660645 311.603394,505.279327 311.113647,507.147705 
	C310.041473,511.238098 309.522736,515.496643 309.058655,519.717346 
	C308.512604,524.684143 308.263611,529.683594 307.840698,535.263855 
	C311.661835,533.919067 314.577881,532.904663 317.485809,531.867371 
	C329.780731,527.481628 342.563385,525.786072 355.395996,527.309998 
	C360.936340,527.967834 366.970093,530.625732 371.275513,534.191345 
	C379.204956,540.758240 379.353180,549.997009 378.213318,559.907288 
	C375.621796,582.438904 356.978516,589.426392 338.704651,589.367676 
	C339.206573,584.955017 339.700745,580.610718 340.183197,576.369202 
	C359.504913,573.186646 365.456116,560.048828 364.179749,546.115967 
	C344.837830,547.372314 325.497620,548.628601 306.180450,549.883362 
	C305.053009,558.999023 304.031097,567.298218 302.999176,575.596130 
	C301.704498,586.006775 300.222076,596.398926 299.207397,606.836670 
	C298.886658,610.135986 297.036041,614.664612 303.578552,615.983398 
M347.094299,441.959473 
	C346.697601,438.707062 345.677124,435.389191 346.010651,432.213440 
	C347.567322,417.390472 349.513611,402.608612 351.288208,387.808197 
	C352.242981,379.845612 353.132507,371.875214 354.086853,363.601654 
	C342.441711,365.251984 331.620605,366.814819 320.788666,368.298584 
	C318.286438,368.641327 317.286285,369.664520 317.000946,372.399200 
	C315.626099,385.575531 313.770355,398.701660 312.393188,411.877777 
	C311.135468,423.910858 309.569702,435.975006 309.395660,448.043579 
	C309.117676,467.315796 322.049652,479.798004 341.251282,479.875275 
	C360.404999,479.952362 376.791321,473.112976 390.426880,459.693115 
	C398.566895,470.192932 399.518585,471.192932 404.896393,472.574799 
	C420.047455,476.468140 433.260498,472.425171 444.138153,461.645538 
	C450.391357,455.448730 454.044769,447.557678 454.606140,438.033875 
	C446.379639,438.789368 438.711609,439.493561 430.442383,440.252991 
	C433.499481,410.508942 436.486084,381.450714 439.541840,351.719727 
	C426.156860,353.560425 413.277527,355.331604 400.117950,357.141357 
	C397.767181,379.309998 395.502258,401.047272 393.107788,422.770325 
	C392.809479,425.476532 392.623688,428.798523 391.019104,430.652191 
	C384.326538,438.383881 376.270691,444.464844 366.346405,447.582703 
	C357.184845,450.460968 351.724884,448.942688 347.094299,441.959473 
M287.000427,548.570618 
	C287.333588,542.299988 288.350189,535.975281 287.858612,529.769958 
	C286.810822,516.543274 281.138916,507.013397 267.106934,504.040253 
	C249.530975,500.316223 233.579224,504.602905 219.438019,515.654602 
	C214.550659,506.559692 207.071976,503.814178 193.153320,506.005157 
	C181.026611,507.914001 172.282074,518.554382 169.469528,535.214172 
	C175.937531,534.812073 182.285553,534.417480 189.283768,533.982422 
	C185.561646,562.323853 181.928680,589.986389 178.300186,617.614868 
	C189.021347,617.614868 199.419525,617.614868 209.676575,617.614868 
	C210.150513,613.791016 210.589355,610.365417 210.997299,606.936218 
	C212.083313,597.807068 213.108704,588.670532 214.246979,579.547974 
	C215.444382,569.951721 217.145309,560.398315 217.867310,550.769287 
	C218.399445,543.672302 220.945847,538.543274 227.631256,535.812378 
	C230.043396,534.826965 232.453094,533.702209 234.975174,533.142212 
	C246.640472,530.552612 252.380203,534.943909 251.879517,546.830750 
	C251.479294,556.332458 250.011520,565.789429 249.007980,575.265320 
	C247.511703,589.393738 246.006989,603.521362 244.468597,618.000000 
	C254.357666,618.000000 264.179016,617.766968 273.980957,618.101929 
	C278.626190,618.260742 279.825256,616.554260 280.117126,612.168396 
	C280.793518,602.004883 282.020691,591.874939 283.154144,581.745850 
	C284.358154,570.986328 285.711731,560.243591 287.000427,548.570618 
M242.084305,459.468048 
	C240.946732,461.025116 239.809158,462.582214 238.414658,464.490936 
	C229.255219,437.446716 224.037903,410.274323 223.434738,381.814819 
	C212.209366,383.421387 201.434952,384.963409 190.511108,386.526825 
	C191.181412,422.389221 197.707382,456.758575 210.948120,490.290985 
	C224.159027,489.245544 237.212692,488.229431 250.262787,487.169403 
	C254.122971,486.855835 257.890900,487.213959 260.890381,483.337250 
	C273.398254,467.170990 284.334778,450.125031 292.116730,431.151611 
	C296.794739,419.746002 300.561920,408.083527 300.591888,395.633820 
	C300.624298,382.177094 293.651917,373.569702 281.608246,372.489990 
	C274.228333,371.828461 267.034088,373.752411 260.651215,377.576416 
	C251.196213,383.240967 245.627426,395.077515 247.921677,404.104004 
	C253.915009,403.512604 259.950165,402.917114 266.015656,402.318604 
	C265.563751,412.865234 255.894882,435.818237 242.084305,459.468048 
M149.136719,617.928711 
	C159.659225,614.581665 168.482071,601.847229 166.275421,590.815918 
	C160.659378,590.815918 154.916260,590.815918 148.542191,590.815918 
	C151.981201,563.606140 155.341522,537.019043 158.714462,510.332031 
	C148.703751,510.968933 138.942215,511.589966 128.892258,512.229370 
	C128.892258,514.545654 129.109833,516.398499 128.857605,518.185120 
	C126.958656,531.636353 124.896645,545.064636 123.025375,558.519592 
	C121.287933,571.012329 119.884003,583.553101 118.024712,596.026672 
	C116.826714,604.063782 121.487953,613.734192 128.869064,617.408569 
	C135.267303,620.593811 141.771362,620.015686 149.136719,617.928711 
M143.118927,409.422424 
	C141.168884,424.011353 139.060394,438.581512 137.328461,453.196289 
	C136.296890,461.901215 135.409897,470.670044 135.287598,479.421722 
	C135.183121,486.897766 140.010803,493.053711 146.728592,494.379913 
	C155.191254,496.050629 163.277084,494.471527 170.169876,488.928467 
	C178.199036,482.471619 182.130341,473.768341 183.509811,463.243896 
	C177.264145,463.808228 171.139236,464.361603 164.607483,464.951752 
	C167.827057,439.374390 170.975815,414.359619 174.211502,388.654266 
	C164.046402,390.047333 154.759384,391.320068 145.345108,392.610260 
	C144.607468,398.071350 143.901001,403.301514 143.118927,409.422424 
M306.040344,346.766266 
	C307.023529,338.973785 308.006714,331.181305 308.997589,323.327759 
	C307.336456,323.327759 306.486664,323.206116 305.682068,323.345490 
	C284.662140,326.986298 263.635498,330.590332 242.635925,334.345520 
	C232.716843,336.119293 222.664261,337.535187 213.005859,340.285217 
	C199.105667,344.243042 189.707428,357.359436 190.886871,369.746613 
	C229.103500,363.929718 267.305939,358.114990 305.609619,352.284851 
	C305.750854,350.596710 305.874420,349.119690 306.040344,346.766266 
M487.999695,456.385071 
	C487.588593,460.419952 487.177490,464.454834 486.737030,468.777832 
	C488.258514,468.850006 489.060913,468.985199 489.843231,468.910431 
	C499.811554,467.957794 509.794189,467.120667 519.736694,465.945435 
	C525.717346,465.238556 531.842957,464.655365 537.539368,462.860901 
	C552.528931,458.138977 564.031189,443.014557 564.550720,427.758301 
	C539.796753,429.985260 515.115540,432.205688 490.021454,434.463257 
	C489.348206,441.455902 488.674103,448.457642 487.999695,456.385071 
z"/>
<path fill="#FA4786" opacity="1.000000" stroke="none" 
	d="
M655.723145,604.229797 
	C646.134949,596.206055 640.992676,586.086670 639.020203,574.275513 
	C636.398743,558.578308 639.520996,543.096863 640.929016,527.548157 
	C641.746277,518.523071 642.243958,509.469421 643.023193,500.440552 
	C643.656494,493.101501 644.494629,485.780151 645.257751,478.295868 
	C662.403748,477.181030 679.324585,476.080841 697.164124,474.920898 
	C696.713135,483.254852 696.397827,491.270233 695.804626,499.264984 
	C695.416626,504.493378 694.453369,509.678619 694.052063,514.906555 
	C693.256592,525.268188 692.682068,535.646545 691.994995,546.016663 
	C691.689941,550.621094 691.274231,555.218750 691.011169,559.825317 
	C690.236084,573.397827 698.031311,580.079346 708.507141,582.580688 
	C720.900024,585.539917 733.409546,584.761169 745.041931,578.929199 
	C755.467712,573.701843 760.411438,564.976746 761.099426,553.255127 
	C762.015259,537.653076 763.665649,522.094788 764.940918,506.512848 
	C765.385071,501.085602 765.649353,495.643707 766.000610,490.208801 
	C766.424988,483.645142 766.854614,477.081848 767.296753,470.290771 
	C786.786682,468.962585 806.130310,467.644348 826.246155,466.273499 
	C825.677917,476.854034 825.124512,487.376648 824.532837,497.897156 
	C824.459473,499.201569 824.077148,500.489624 824.016235,501.793579 
	C823.322693,516.662292 822.907715,531.548645 821.932739,546.398376 
	C820.762817,564.219421 815.036377,580.499756 802.662476,593.657593 
	C792.829956,604.113098 780.527649,611.274231 766.648560,614.813477 
	C755.607666,617.628967 744.244202,619.343323 732.933167,620.877319 
	C725.588562,621.873413 718.035950,622.350586 710.655090,621.865051 
	C692.434814,620.666382 674.357300,618.438477 659.024231,606.997314 
	C657.971619,606.211914 656.996460,605.322632 655.723145,604.229797 
z"/>
<path fill="#FA4786" opacity="1.000000" stroke="none" 
	d="
M615.941711,512.680664 
	C615.270386,518.187073 614.459473,523.212891 614.048218,528.271240 
	C613.246704,538.130615 612.826599,548.022034 611.959900,557.874756 
	C610.793701,571.132202 609.269775,584.357910 608.068420,597.612549 
	C607.473633,604.174683 607.257019,610.771057 606.821106,618.169434 
	C590.686340,618.169434 574.680908,618.169434 557.868530,618.169434 
	C558.297058,610.959045 558.642334,603.279114 559.249756,595.619934 
	C559.625122,590.887146 560.583008,586.200684 560.961975,581.468018 
	C562.382019,563.733704 563.601562,545.983276 565.031067,528.249756 
	C566.260376,512.999268 567.678223,497.763977 569.004150,482.521240 
	C570.344421,467.112946 571.640320,451.700684 573.038574,436.297668 
	C573.303528,433.378723 573.956726,430.495056 574.534668,426.959595 
	C622.376770,422.473022 670.435852,417.966064 718.885864,413.422485 
	C719.378418,422.462677 715.947998,430.090820 710.544739,436.889557 
	C702.043274,447.586853 690.857483,453.191925 677.161255,454.052490 
	C664.343689,454.857880 651.543030,455.950775 638.744080,457.026215 
	C632.583252,457.543915 626.443604,458.312805 620.042358,458.994843 
	C618.661133,477.102539 617.321899,494.658691 615.941711,512.680664 
z"/>
<path fill="#FA4786" opacity="1.000000" stroke="none" 
	d="
M514.531006,613.756470 
	C499.776947,619.060242 484.777710,621.391541 469.663635,620.761902 
	C457.119904,620.239380 444.652649,617.699036 432.185211,615.827759 
	C431.009003,615.651184 429.099915,613.783936 429.178528,612.838501 
	C429.953156,603.519714 430.971771,594.216492 432.172424,584.941345 
	C432.482635,582.545166 434.053680,581.430603 436.857483,582.371216 
	C451.508209,587.285767 466.690491,587.561096 481.891754,586.878540 
	C485.523010,586.715515 489.400269,585.618835 492.568970,583.871643 
	C494.606903,582.748047 496.469604,579.734924 496.680359,577.411682 
	C496.825195,575.814514 494.296387,572.898376 492.454163,572.380493 
	C483.679901,569.913940 474.789948,567.756348 465.831818,566.069458 
	C451.053101,563.286438 437.634338,557.180054 435.325317,540.072571 
	C433.077240,523.416748 437.919098,505.879639 456.141846,496.396332 
	C467.070343,490.709076 478.798065,487.835022 490.982666,487.071869 
	C501.894501,486.388489 512.847656,486.032806 523.778564,486.109283 
	C530.645569,486.157318 537.505066,487.269318 544.914490,487.954498 
	C544.589905,491.987396 544.341675,495.674561 543.986572,499.351440 
	C543.354797,505.893341 542.573608,512.421936 542.025208,518.970276 
	C541.754395,522.203857 539.555664,522.406921 537.409851,521.901001 
	C524.577332,518.875549 511.534668,518.569763 498.494812,519.125732 
	C493.013519,519.359375 487.558960,520.831787 482.155548,522.027100 
	C479.396362,522.637512 476.909149,524.406189 478.147308,527.617188 
	C478.920654,529.622681 480.801605,532.110840 482.665192,532.617249 
	C488.476776,534.196411 494.516541,534.936157 500.468109,535.999756 
	C511.195007,537.916748 522.266357,538.592651 531.744751,544.925415 
	C539.164124,549.882324 542.599792,556.919006 543.017029,565.690430 
	C543.560425,577.113464 542.268127,587.951782 535.189575,597.596558 
	C529.843506,604.880859 522.779907,609.691162 514.531006,613.756470 
z"/>
<path fill="#FA4786" opacity="1.000000" stroke="none" 
	d="
M303.154053,615.937866 
	C297.036041,614.664612 298.886658,610.135986 299.207397,606.836670 
	C300.222076,596.398926 301.704498,586.006775 302.999176,575.596130 
	C304.031097,567.298218 305.053009,558.999023 306.180450,549.883362 
	C325.497620,548.628601 344.837830,547.372314 364.179749,546.115967 
	C365.456116,560.048828 359.504913,573.186646 340.183197,576.369202 
	C339.700745,580.610718 339.206573,584.955017 338.704651,589.367676 
	C356.978516,589.426392 375.621796,582.438904 378.213318,559.907288 
	C379.353180,549.997009 379.204956,540.758240 371.275513,534.191345 
	C366.970093,530.625732 360.936340,527.967834 355.395996,527.309998 
	C342.563385,525.786072 329.780731,527.481628 317.485809,531.867371 
	C314.577881,532.904663 311.661835,533.919067 307.840698,535.263855 
	C308.263611,529.683594 308.512604,524.684143 309.058655,519.717346 
	C309.522736,515.496643 310.041473,511.238098 311.113647,507.147705 
	C311.603394,505.279327 313.216339,502.660645 314.775879,502.287323 
	C324.765564,499.896088 334.823547,497.640930 344.976776,496.133575 
	C351.973297,495.094910 359.173523,494.875061 366.257629,495.095520 
	C380.909576,495.551575 394.595917,499.649963 405.266998,510.034698 
	C413.546051,518.091614 417.743835,528.381348 419.206055,540.171265 
	C421.135468,555.728516 418.417450,570.238892 411.901215,584.125366 
	C403.378448,602.287964 388.045471,612.207214 369.213318,616.828857 
	C361.157837,618.805847 352.674377,619.091980 344.367554,619.979614 
	C330.508667,621.460571 317.013153,618.972290 303.154053,615.937866 
z"/>
<path fill="#053175" opacity="1.000000" stroke="none" 
	d="
M347.314575,442.295288 
	C351.724884,448.942688 357.184845,450.460968 366.346405,447.582703 
	C376.270691,444.464844 384.326538,438.383881 391.019104,430.652191 
	C392.623688,428.798523 392.809479,425.476532 393.107788,422.770325 
	C395.502258,401.047272 397.767181,379.309998 400.117950,357.141357 
	C413.277527,355.331604 426.156860,353.560425 439.541840,351.719727 
	C436.486084,381.450714 433.499481,410.508942 430.442383,440.252991 
	C438.711609,439.493561 446.379639,438.789368 454.606140,438.033875 
	C454.044769,447.557678 450.391357,455.448730 444.138153,461.645538 
	C433.260498,472.425171 420.047455,476.468140 404.896393,472.574799 
	C399.518585,471.192932 398.566895,470.192932 390.426880,459.693115 
	C376.791321,473.112976 360.404999,479.952362 341.251282,479.875275 
	C322.049652,479.798004 309.117676,467.315796 309.395660,448.043579 
	C309.569702,435.975006 311.135468,423.910858 312.393188,411.877777 
	C313.770355,398.701660 315.626099,385.575531 317.000946,372.399200 
	C317.286285,369.664520 318.286438,368.641327 320.788666,368.298584 
	C331.620605,366.814819 342.441711,365.251984 354.086853,363.601654 
	C353.132507,371.875214 352.242981,379.845612 351.288208,387.808197 
	C349.513611,402.608612 347.567322,417.390472 346.010651,432.213440 
	C345.677124,435.389191 346.697601,438.707062 347.314575,442.295288 
z"/>
<path fill="#FA4786" opacity="1.000000" stroke="none" 
	d="
M287.000214,549.032104 
	C285.711731,560.243591 284.358154,570.986328 283.154144,581.745850 
	C282.020691,591.874939 280.793518,602.004883 280.117126,612.168396 
	C279.825256,616.554260 278.626190,618.260742 273.980957,618.101929 
	C264.179016,617.766968 254.357666,618.000000 244.468597,618.000000 
	C246.006989,603.521362 247.511703,589.393738 249.007980,575.265320 
	C250.011520,565.789429 251.479294,556.332458 251.879517,546.830750 
	C252.380203,534.943909 246.640472,530.552612 234.975174,533.142212 
	C232.453094,533.702209 230.043396,534.826965 227.631256,535.812378 
	C220.945847,538.543274 218.399445,543.672302 217.867310,550.769287 
	C217.145309,560.398315 215.444382,569.951721 214.246979,579.547974 
	C213.108704,588.670532 212.083313,597.807068 210.997299,606.936218 
	C210.589355,610.365417 210.150513,613.791016 209.676575,617.614868 
	C199.419525,617.614868 189.021347,617.614868 178.300186,617.614868 
	C181.928680,589.986389 185.561646,562.323853 189.283768,533.982422 
	C182.285553,534.417480 175.937531,534.812073 169.469528,535.214172 
	C172.282074,518.554382 181.026611,507.914001 193.153320,506.005157 
	C207.071976,503.814178 214.550659,506.559692 219.438019,515.654663 
	C233.579224,504.602905 249.530975,500.316223 267.106934,504.040253 
	C281.138916,507.013397 286.810822,516.543274 287.858612,529.769958 
	C288.350189,535.975281 287.333588,542.299988 287.000214,549.032104 
z"/>
<path fill="#053175" opacity="1.000000" stroke="none" 
	d="
M242.204742,459.118896 
	C255.894882,435.818237 265.563751,412.865234 266.015656,402.318604 
	C259.950165,402.917114 253.915009,403.512604 247.921677,404.104004 
	C245.627426,395.077515 251.196213,383.240967 260.651215,377.576416 
	C267.034088,373.752411 274.228333,371.828461 281.608246,372.489990 
	C293.651917,373.569702 300.624298,382.177094 300.591888,395.633820 
	C300.561920,408.083527 296.794739,419.746002 292.116730,431.151611 
	C284.334778,450.125031 273.398254,467.170990 260.890381,483.337250 
	C257.890900,487.213959 254.122971,486.855835 250.262787,487.169403 
	C237.212692,488.229431 224.159027,489.245544 210.948120,490.290985 
	C197.707382,456.758575 191.181412,422.389221 190.511108,386.526825 
	C201.434952,384.963409 212.209366,383.421387 223.434738,381.814819 
	C224.037903,410.274323 229.255219,437.446716 238.414658,464.490936 
	C239.809158,462.582214 240.946732,461.025116 242.204742,459.118896 
z"/>
<path fill="#FA4786" opacity="1.000000" stroke="none" 
	d="
M148.731125,617.972656 
	C141.771362,620.015686 135.267303,620.593811 128.869064,617.408569 
	C121.487953,613.734192 116.826714,604.063782 118.024712,596.026672 
	C119.884003,583.553101 121.287933,571.012329 123.025375,558.519592 
	C124.896645,545.064636 126.958656,531.636353 128.857605,518.185120 
	C129.109833,516.398499 128.892258,514.545654 128.892258,512.229370 
	C138.942215,511.589966 148.703751,510.968933 158.714462,510.332031 
	C155.341522,537.019043 151.981201,563.606140 148.542191,590.815918 
	C154.916260,590.815918 160.659378,590.815918 166.275421,590.815918 
	C168.482071,601.847229 159.659225,614.581665 148.731125,617.972656 
z"/>
<path fill="#063275" opacity="1.000000" stroke="none" 
	d="
M143.156738,408.977051 
	C143.901001,403.301514 144.607468,398.071350 145.345108,392.610260 
	C154.759384,391.320068 164.046402,390.047333 174.211502,388.654266 
	C170.975815,414.359619 167.827057,439.374390 164.607483,464.951752 
	C171.139236,464.361603 177.264145,463.808228 183.509811,463.243896 
	C182.130341,473.768341 178.199036,482.471619 170.169876,488.928467 
	C163.277084,494.471527 155.191254,496.050629 146.728592,494.379913 
	C140.010803,493.053711 135.183121,486.897766 135.287598,479.421722 
	C135.409897,470.670044 136.296890,461.901215 137.328461,453.196289 
	C139.060394,438.581512 141.168884,424.011353 143.156738,408.977051 
z"/>
<path fill="#063276" opacity="1.000000" stroke="none" 
	d="
M306.019165,347.204468 
	C305.874420,349.119690 305.750854,350.596710 305.609619,352.284851 
	C267.305939,358.114990 229.103500,363.929718 190.886871,369.746613 
	C189.707428,357.359436 199.105667,344.243042 213.005859,340.285217 
	C222.664261,337.535187 232.716843,336.119293 242.635925,334.345520 
	C263.635498,330.590332 284.662140,326.986298 305.682068,323.345490 
	C306.486664,323.206116 307.336456,323.327759 308.997589,323.327759 
	C308.006714,331.181305 307.023529,338.973785 306.019165,347.204468 
z"/>
<path fill="#FA4786" opacity="1.000000" stroke="none" 
	d="
M487.999847,455.922241 
	C488.674103,448.457642 489.348206,441.455902 490.021454,434.463257 
	C515.115540,432.205688 539.796753,429.985260 564.550720,427.758301 
	C564.031189,443.014557 552.528931,458.138977 537.539368,462.860901 
	C531.842957,464.655365 525.717346,465.238556 519.736694,465.945435 
	C509.794189,467.120667 499.811554,467.957794 489.843231,468.910431 
	C489.060913,468.985199 488.258514,468.850006 486.737030,468.777832 
	C487.177490,464.454834 487.588593,460.419952 487.999847,455.922241 
z"/>
</svg>